<svg width="400" height="100" viewBox="0 0 400 100" fill="none" xmlns="http://www.w3.org/2000/svg">
<path d="M34.8005 72.904V27.496H49.5845V33.16H41.9525V67.288H49.5845V72.904H34.8005ZM67.0378 30.64V44.032C68.1098 42.896 69.2698 42.056 70.5178 41.512C71.7818 40.952 73.1178 40.672 74.5258 40.672C76.7978 40.672 78.5338 41.336 79.7338 42.664C80.9338 43.992 81.5338 45.864 81.5338 48.28V67H73.9498V50.392C73.9498 48.856 73.7738 47.784 73.4218 47.176C73.0858 46.568 72.4458 46.264 71.5018 46.264C70.9738 46.264 70.4538 46.392 69.9418 46.648C69.4458 46.888 68.9578 47.24 68.4778 47.704C67.9978 48.168 67.5178 48.72 67.0378 49.36V67H59.4538V31.384L67.0378 30.64ZM109.691 59.656C109.691 60.616 109.819 61.312 110.075 61.744C110.347 62.176 110.779 62.504 111.371 62.728L109.811 67.72C108.307 67.576 107.035 67.248 105.995 66.736C104.971 66.208 104.163 65.416 103.571 64.36C102.595 65.528 101.347 66.4 99.827 66.976C98.307 67.536 96.755 67.816 95.171 67.816C92.547 67.816 90.451 67.072 88.883 65.584C87.331 64.08 86.555 62.152 86.555 59.8C86.555 57.032 87.635 54.896 89.795 53.392C91.971 51.888 95.027 51.136 98.963 51.136H102.395V50.176C102.395 48.848 101.963 47.864 101.099 47.224C100.251 46.584 99.003 46.264 97.355 46.264C96.539 46.264 95.491 46.384 94.211 46.624C92.931 46.848 91.651 47.176 90.371 47.608L88.619 42.568C90.267 41.944 91.979 41.472 93.755 41.152C95.547 40.832 97.147 40.672 98.555 40.672C102.347 40.672 105.147 41.448 106.955 43C108.779 44.536 109.691 46.76 109.691 49.672V59.656ZM97.787 62.392C98.603 62.392 99.459 62.152 100.355 61.672C101.251 61.176 101.931 60.48 102.395 59.584V55.456H100.523C98.411 55.456 96.859 55.784 95.867 56.44C94.875 57.08 94.379 58.024 94.379 59.272C94.379 60.248 94.675 61.016 95.267 61.576C95.875 62.12 96.715 62.392 97.787 62.392ZM130.312 31.384V58.984C130.312 60.008 130.6 60.744 131.176 61.192C131.768 61.624 132.576 61.84 133.6 61.84C134.256 61.84 134.888 61.768 135.496 61.624C136.104 61.464 136.672 61.28 137.2 61.072L139.024 66.136C138.16 66.584 137.12 66.976 135.904 67.312C134.688 67.648 133.272 67.816 131.656 67.816C128.584 67.816 126.328 66.936 124.888 65.176C123.448 63.4 122.728 61.024 122.728 58.048V36.568H115.216V31.384H130.312ZM168.742 65.512C167.75 66.152 166.55 66.696 165.142 67.144C163.734 67.592 162.15 67.816 160.39 67.816C157.062 67.816 154.59 66.968 152.974 65.272C151.358 63.56 150.55 61.24 150.55 58.312V46.744H145.198V41.512H150.55V35.992L158.134 35.08V41.512H166.342L165.598 46.744H158.134V58.312C158.134 59.576 158.422 60.48 158.998 61.024C159.574 61.568 160.494 61.84 161.758 61.84C162.654 61.84 163.47 61.736 164.206 61.528C164.958 61.304 165.63 61.024 166.222 60.688L168.742 65.512ZM175.227 56.848V50.944H196.011V56.848H175.227ZM213.584 62.392C214.848 62.392 215.864 62.192 216.632 61.792C217.416 61.392 217.808 60.792 217.808 59.992C217.808 59.448 217.656 58.992 217.352 58.624C217.048 58.256 216.464 57.904 215.6 57.568C214.736 57.232 213.456 56.832 211.76 56.368C210.208 55.952 208.832 55.424 207.632 54.784C206.448 54.144 205.52 53.32 204.848 52.312C204.192 51.304 203.864 50.048 203.864 48.544C203.864 47.024 204.288 45.672 205.136 44.488C205.984 43.304 207.232 42.376 208.88 41.704C210.528 41.016 212.544 40.672 214.928 40.672C217.2 40.672 219.176 40.968 220.856 41.56C222.552 42.136 224.016 42.872 225.248 43.768L222.224 48.232C221.168 47.576 220.032 47.056 218.816 46.672C217.6 46.272 216.376 46.072 215.144 46.072C213.912 46.072 212.992 46.24 212.384 46.576C211.792 46.896 211.496 47.384 211.496 48.04C211.496 48.472 211.648 48.848 211.952 49.168C212.272 49.472 212.864 49.792 213.728 50.128C214.592 50.448 215.856 50.848 217.52 51.328C219.168 51.792 220.6 52.328 221.816 52.936C223.048 53.544 224 54.36 224.672 55.384C225.344 56.392 225.68 57.728 225.68 59.392C225.68 61.248 225.128 62.808 224.024 64.072C222.92 65.32 221.456 66.256 219.632 66.88C217.808 67.504 215.808 67.816 213.632 67.816C211.168 67.816 208.992 67.464 207.104 66.76C205.216 66.056 203.608 65.128 202.28 63.976L206.096 59.704C207.088 60.472 208.208 61.112 209.456 61.624C210.72 62.136 212.096 62.392 213.584 62.392ZM255.085 65.512C254.093 66.152 252.893 66.696 251.485 67.144C250.077 67.592 248.493 67.816 246.733 67.816C243.405 67.816 240.933 66.968 239.317 65.272C237.701 63.56 236.893 61.24 236.893 58.312V46.744H231.541V41.512H236.893V35.992L244.477 35.08V41.512H252.685L251.941 46.744H244.477V58.312C244.477 59.576 244.765 60.48 245.341 61.024C245.917 61.568 246.837 61.84 248.101 61.84C248.997 61.84 249.813 61.736 250.549 61.528C251.301 61.304 251.973 61.024 252.565 60.688L255.085 65.512ZM282.379 59.656C282.379 60.616 282.507 61.312 282.763 61.744C283.035 62.176 283.467 62.504 284.059 62.728L282.499 67.72C280.995 67.576 279.723 67.248 278.683 66.736C277.659 66.208 276.851 65.416 276.259 64.36C275.283 65.528 274.035 66.4 272.515 66.976C270.995 67.536 269.443 67.816 267.859 67.816C265.235 67.816 263.139 67.072 261.571 65.584C260.019 64.08 259.243 62.152 259.243 59.8C259.243 57.032 260.323 54.896 262.483 53.392C264.659 51.888 267.715 51.136 271.651 51.136H275.083V50.176C275.083 48.848 274.651 47.864 273.787 47.224C272.939 46.584 271.691 46.264 270.043 46.264C269.227 46.264 268.179 46.384 266.899 46.624C265.619 46.848 264.339 47.176 263.059 47.608L261.307 42.568C262.955 41.944 264.667 41.472 266.443 41.152C268.235 40.832 269.835 40.672 271.243 40.672C275.035 40.672 277.835 41.448 279.643 43C281.467 44.536 282.379 46.76 282.379 49.672V59.656ZM270.475 62.392C271.291 62.392 272.147 62.152 273.043 61.672C273.939 61.176 274.619 60.48 275.083 59.584V55.456H273.211C271.099 55.456 269.547 55.784 268.555 56.44C267.563 57.08 267.067 58.024 267.067 59.272C267.067 60.248 267.363 61.016 267.955 61.576C268.563 62.12 269.403 62.392 270.475 62.392ZM303.216 61.84C304.256 61.84 305.232 61.64 306.144 61.24C307.072 60.824 307.992 60.296 308.904 59.656L312.288 64.456C311.168 65.416 309.8 66.216 308.184 66.856C306.584 67.496 304.792 67.816 302.808 67.816C300.072 67.816 297.72 67.256 295.752 66.136C293.784 65 292.272 63.432 291.216 61.432C290.16 59.416 289.632 57.08 289.632 54.424C289.632 51.768 290.168 49.408 291.24 47.344C292.328 45.264 293.864 43.632 295.848 42.448C297.848 41.264 300.216 40.672 302.952 40.672C304.888 40.672 306.608 40.944 308.112 41.488C309.632 42.016 311.024 42.808 312.288 43.864L309 48.424C308.136 47.816 307.224 47.344 306.264 47.008C305.304 46.672 304.304 46.504 303.264 46.504C301.552 46.504 300.168 47.112 299.112 48.328C298.072 49.528 297.552 51.56 297.552 54.424C297.552 56.296 297.8 57.776 298.296 58.864C298.792 59.936 299.464 60.704 300.312 61.168C301.176 61.616 302.144 61.84 303.216 61.84ZM342.677 41.512L334.301 52.792L343.373 67H334.733L326.357 53.032L334.733 41.512H342.677ZM326.069 30.592V67H318.485V31.384L326.069 30.592ZM365.218 27.496V72.904H350.434V67.24H358.066V33.16H350.434V27.496H365.218Z" fill="#B3A1E6"/>
</svg>
